<svg width="24" height="24" viewBox="0 0 24 24" fill="none" xmlns="http://www.w3.org/2000/svg">
<g clip-path="url(#clip0_28_2)">
<path fill-rule="evenodd" clip-rule="evenodd" d="M2.93337 23.7714L21.0286 23.7714C22.5905 23.7714 23.8477 22.5142 23.8477 20.9523L23.8477 2.81898C23.8477 1.25707 22.5905 -6.72908e-05 21.0286 -6.72908e-05L2.93337 -6.72908e-05C1.37146 -6.72908e-05 0.114324 1.25707 0.114324 2.81898L0.114324 20.9523C0.114324 22.5142 1.37146 23.7714 2.93337 23.7714ZM13.6381 6.6666C13.6381 6.13327 14.0572 5.71422 14.5905 5.71422H18.5524C19.0858 5.71422 19.5048 6.13327 19.5048 6.6666L19.5048 18.438C19.5048 18.9714 19.0858 19.3904 18.5524 19.3904H14.5905C14.0572 19.3904 13.6381 18.9714 13.6381 18.438L13.6381 6.6666ZM4.49528 12.0761C4.49528 11.5428 4.91432 11.1237 5.40956 11.1237L9.40956 11.1237C9.94289 11.1237 10.3619 11.5428 10.3619 12.0761V18.438C10.3619 18.9714 9.94289 19.3904 9.40956 19.3904H5.44766C4.91432 19.3904 4.49528 18.9714 4.49528 18.438L4.49528 12.0761Z" fill="url(#paint0_linear_28_2)"/>
</g>
<defs>
<linearGradient id="paint0_linear_28_2" x1="11.9829" y1="-8.6934" x2="11.9829" y2="15.0742" gradientUnits="userSpaceOnUse">
<stop stop-color="#3E5271"/>
<stop offset="1" stop-color="#77859B"/>
</linearGradient>
<clipPath id="clip0_28_2">
<rect width="24" height="24" fill="white" transform="matrix(-1 0 0 -1 24 23.9999)"/>
</clipPath>
</defs>
</svg>
